<?xml version="1.0" encoding="UTF-8" standalone="no"?><!-- Generator: Gravit.io --><svg xmlns="http://www.w3.org/2000/svg" xmlns:xlink="http://www.w3.org/1999/xlink" style="isolation:isolate" viewBox="208 16 512 512" width="512pt" height="512pt"><defs><clipPath id="_clipPath_WYqjs3s3EsE2VSUn8NnSDtlamWOTyRNP"><rect width="736" height="544"/></clipPath></defs><g clip-path="url(#_clipPath_WYqjs3s3EsE2VSUn8NnSDtlamWOTyRNP)"><g><g><rect x="454.35" y="206.404" width="28.575" height="188.957" transform="matrix(0.707,0.707,-0.707,0.707,350.017,-243.25)" fill="rgb(241,80,47)"/><path d=" M 343.779 360.43 C 325.52 378.688 325.52 408.336 343.779 426.594 C 362.037 444.853 391.685 444.853 409.943 426.594 C 428.202 408.336 428.202 378.688 409.943 360.43 C 391.685 342.171 362.037 342.171 343.779 360.43 Z " fill="rgb(241,80,47)"/><g><path d=" M 360.582 378.827 C 351.716 387.693 351.716 402.088 360.582 410.954 C 369.448 419.82 383.843 419.82 392.709 410.954 C 401.575 402.088 401.575 387.693 392.709 378.827 C 383.843 369.961 369.448 369.961 360.582 378.827 Z " fill="rgb(255,255,255)"/></g></g><g><path d=" M 310.785 287.227 C 284.964 287.227 264 266.263 264 240.442 C 264 214.62 284.964 193.657 310.785 193.657 C 336.607 193.657 357.57 214.62 357.57 240.442 C 357.57 266.263 336.607 287.227 310.785 287.227 Z " fill="rgb(241,80,47)"/><rect x="443.801" y="132.122" width="28.575" height="216.613" transform="matrix(0,1,-1,0,698.517,-217.66)" fill="rgb(241,80,47)"/><g><path d=" M 310.53 262.337 C 297.991 262.337 287.812 252.157 287.812 239.619 C 287.812 227.081 297.991 216.902 310.53 216.902 C 323.068 216.902 333.247 227.081 333.247 239.619 C 333.247 252.157 323.068 262.337 310.53 262.337 Z " fill="rgb(255,255,255)"/></g></g><circle vector-effect="non-scaling-stroke" cx="527.2699335813761" cy="240.44191823620298" r="136.7300664186239" fill="rgb(241,80,47)"/><g><path d=" M 527.27 344.794 C 469.677 344.794 422.918 298.035 422.918 240.442 C 422.918 182.849 469.677 136.09 527.27 136.09 C 584.863 136.09 631.622 182.849 631.622 240.442 C 631.622 298.035 584.863 344.794 527.27 344.794 Z " fill="rgb(255,255,255)"/></g><g><path d=" M 468.021 274.738 L 468.021 305.79 L 499.073 305.79 L 574.013 230.85 L 542.961 199.798 L 468.021 274.738 Z  M 596.254 208.708 C 599.538 205.424 599.538 200.249 596.254 196.965 L 576.846 177.557 C 573.562 174.273 568.387 174.273 565.103 177.557 L 548.88 193.879 L 579.932 224.931 L 596.254 208.708 Z " fill="rgb(241,80,47)"/></g></g><g><g><rect x="166.89" y="496.81" width="3.286" height="21.73" transform="matrix(0.707,0.707,-0.707,0.707,408.342,29.523)" fill="rgb(241,80,47)"/><path d=" M 154.175 514.523 C 152.075 516.622 152.075 520.032 154.175 522.131 C 156.274 524.231 159.684 524.231 161.783 522.131 C 163.883 520.032 163.883 516.622 161.783 514.523 C 159.684 512.423 156.274 512.423 154.175 514.523 Z " fill="rgb(241,80,47)"/><g><path d=" M 156.107 516.638 C 155.087 517.658 155.087 519.313 156.107 520.333 C 157.126 521.352 158.782 521.352 159.802 520.333 C 160.821 519.313 160.821 517.658 159.802 516.638 C 158.782 515.619 157.126 515.619 156.107 516.638 Z " fill="rgb(255,255,255)"/></g></g><g><path d=" M 150.38 506.104 C 147.411 506.104 145 503.693 145 500.724 C 145 497.754 147.411 495.344 150.38 495.344 C 153.35 495.344 155.761 497.754 155.761 500.724 C 155.761 503.693 153.35 506.104 150.38 506.104 Z " fill="rgb(241,80,47)"/><rect x="165.677" y="488.267" width="3.286" height="24.911" transform="matrix(0,1,-1,0,668.043,333.402)" fill="rgb(241,80,47)"/><g><path d=" M 150.351 503.242 C 148.909 503.242 147.738 502.071 147.738 500.629 C 147.738 499.187 148.909 498.017 150.351 498.017 C 151.793 498.017 152.963 499.187 152.963 500.629 C 152.963 502.071 151.793 503.242 150.351 503.242 Z " fill="rgb(255,255,255)"/></g></g><circle vector-effect="non-scaling-stroke" cx="175.27604236185832" cy="500.7239576381404" r="15.723957638141684" fill="rgb(241,80,47)"/><g><path d=" M 175.276 512.724 C 168.653 512.724 163.276 507.347 163.276 500.724 C 163.276 494.101 168.653 488.724 175.276 488.724 C 181.899 488.724 187.276 494.101 187.276 500.724 C 187.276 507.347 181.899 512.724 175.276 512.724 Z " fill="rgb(255,255,255)"/></g><g><path d=" M 168.462 504.668 L 168.462 508.239 L 172.033 508.239 L 180.651 499.621 L 177.081 496.05 L 168.462 504.668 Z  M 183.209 497.075 C 183.587 496.697 183.587 496.102 183.209 495.724 L 180.977 493.492 C 180.6 493.115 180.004 493.115 179.627 493.492 L 177.761 495.369 L 181.332 498.94 L 183.209 497.075 Z " fill="rgb(241,80,47)"/></g></g><g><g><rect x="110.246" y="507.702" width="2.143" height="14.172" transform="matrix(0.707,0.707,-0.707,0.707,396.614,72.064)" fill="rgb(241,80,47)"/><path d=" M 101.953 519.254 C 100.584 520.623 100.584 522.847 101.953 524.216 C 103.323 525.586 105.546 525.586 106.916 524.216 C 108.285 522.847 108.285 520.623 106.916 519.254 C 105.546 517.884 103.323 517.884 101.953 519.254 Z " fill="rgb(241,80,47)"/><g><path d=" M 103.213 520.634 C 102.549 521.299 102.549 522.378 103.213 523.043 C 103.878 523.708 104.958 523.708 105.623 523.043 C 106.288 522.378 106.288 521.299 105.623 520.634 C 104.958 519.969 103.878 519.969 103.213 520.634 Z " fill="rgb(255,255,255)"/></g></g><g><path d=" M 99.479 513.764 C 97.542 513.764 95.97 512.191 95.97 510.255 C 95.97 508.318 97.542 506.746 99.479 506.746 C 101.415 506.746 102.988 508.318 102.988 510.255 C 102.988 512.191 101.415 513.764 99.479 513.764 Z " fill="rgb(241,80,47)"/><rect x="109.455" y="502.131" width="2.143" height="16.246" transform="matrix(0,1,-1,0,620.78,399.727)" fill="rgb(241,80,47)"/><g><path d=" M 99.46 511.897 C 98.519 511.897 97.756 511.133 97.756 510.193 C 97.756 509.253 98.519 508.489 99.46 508.489 C 100.4 508.489 101.163 509.253 101.163 510.193 C 101.163 511.133 100.4 511.897 99.46 511.897 Z " fill="rgb(255,255,255)"/></g></g><circle vector-effect="non-scaling-stroke" cx="115.7150601952389" cy="510.25475498139684" r="10.254754981396928" fill="rgb(241,80,47)"/><g><path d=" M 115.715 518.081 C 111.396 518.081 107.889 514.574 107.889 510.255 C 107.889 505.935 111.396 502.428 115.715 502.428 C 120.035 502.428 123.541 505.935 123.541 510.255 C 123.541 514.574 120.035 518.081 115.715 518.081 Z " fill="rgb(255,255,255)"/></g><g><path d=" M 111.271 512.827 L 111.271 515.156 L 113.6 515.156 L 119.221 509.535 L 116.892 507.206 L 111.271 512.827 Z  M 120.889 507.875 C 121.135 507.628 121.135 507.24 120.889 506.994 L 119.433 505.538 C 119.187 505.292 118.799 505.292 118.553 505.538 L 117.336 506.763 L 119.665 509.091 L 120.889 507.875 Z " fill="rgb(241,80,47)"/></g></g><g><g><rect x="63.469" y="512.648" width="1.572" height="10.393" transform="matrix(0.707,0.707,-0.707,0.707,384.991,106.238)" fill="rgb(241,80,47)"/><path d=" M 57.388 521.119 C 56.384 522.124 56.384 523.754 57.388 524.759 C 58.392 525.763 60.023 525.763 61.027 524.759 C 62.031 523.754 62.031 522.124 61.027 521.119 C 60.023 520.115 58.392 520.115 57.388 521.119 Z " fill="rgb(241,80,47)"/><g><path d=" M 58.312 522.131 C 57.824 522.619 57.824 523.411 58.312 523.898 C 58.8 524.386 59.591 524.386 60.079 523.898 C 60.567 523.411 60.567 522.619 60.079 522.131 C 59.591 521.644 58.8 521.644 58.312 522.131 Z " fill="rgb(255,255,255)"/></g></g><g><path d=" M 55.573 517.093 C 54.153 517.093 53 515.94 53 514.52 C 53 513.1 54.153 511.947 55.573 511.947 C 56.993 511.947 58.146 513.1 58.146 514.52 C 58.146 515.94 56.993 517.093 55.573 517.093 Z " fill="rgb(241,80,47)"/><rect x="62.889" y="508.563" width="1.572" height="11.914" transform="matrix(0,1,-1,0,578.194,450.845)" fill="rgb(241,80,47)"/><g><path d=" M 55.559 515.724 C 54.87 515.724 54.31 515.165 54.31 514.475 C 54.31 513.785 54.87 513.225 55.559 513.225 C 56.249 513.225 56.809 513.785 56.809 514.475 C 56.809 515.165 56.249 515.724 55.559 515.724 Z " fill="rgb(255,255,255)"/></g></g><circle vector-effect="non-scaling-stroke" cx="67.47984634697573" cy="514.5201536530228" r="7.520153653024252" fill="rgb(241,80,47)"/><g><path d=" M 67.48 520.259 C 64.312 520.259 61.741 517.688 61.741 514.52 C 61.741 511.353 64.312 508.781 67.48 508.781 C 70.647 508.781 73.219 511.353 73.219 514.52 C 73.219 517.688 70.647 520.259 67.48 520.259 Z " fill="rgb(255,255,255)"/></g><g><path d=" M 64.221 516.406 L 64.221 518.114 L 65.929 518.114 L 70.051 513.993 L 68.343 512.285 L 64.221 516.406 Z  M 71.274 512.775 C 71.455 512.594 71.455 512.31 71.274 512.129 L 70.207 511.062 C 70.026 510.881 69.741 510.881 69.561 511.062 L 68.668 511.959 L 70.376 513.667 L 71.274 512.775 Z " fill="rgb(241,80,47)"/></g></g><g><rect x="16" y="512" width="16" height="16" transform="matrix(1,0,0,1,0,0)" fill="rgb(241,80,47)"/><g><path d=" M 19.069 522.713 L 19.069 525.394 L 21.751 525.394 L 27.77 519.375 L 25.089 516.693 L 19.069 522.713 Z  M 30.142 517.011 C 30.426 516.728 30.426 516.281 30.142 515.997 L 28.466 514.321 C 28.183 514.038 27.736 514.038 27.452 514.321 L 26.052 515.731 L 28.733 518.412 L 30.142 517.011 Z " fill="rgb(0,0,0)" fill-opacity="0.6"/><path d=" M 19.007 522.604 L 19.007 525.286 L 21.688 525.286 L 27.708 519.266 L 25.027 516.585 L 19.007 522.604 Z  M 30.08 516.903 C 30.363 516.619 30.363 516.172 30.08 515.889 L 28.404 514.213 C 28.12 513.929 27.673 513.929 27.39 514.213 L 25.989 515.622 L 28.67 518.303 L 30.08 516.903 Z " fill="rgb(255,255,255)"/></g></g></g></svg>
