<?xml version="1.0" encoding="UTF-8"?>
<svg height="16px" viewBox="0 0 16 16" width="16px" xmlns="http://www.w3.org/2000/svg">
    <g fill="#000005">
        <path d="m 6.0625 13.292969 h 3.75 v 1.871093 h -3.75 z m 0 0"/>
        <path d="m 10.207031 3.171875 l -1.984375 1.988281 c -0.125 0.121094 -0.320312 0.121094 -0.445312 0 l -1.984375 -1.988281 l -2.652344 2.652344 l 2.894531 2.890625 c 0.058594 0.058594 0.089844 0.140625 0.089844 0.222656 v 2.5 h 3.75 v -2.5 c 0 -0.082031 0.03125 -0.164062 0.089844 -0.222656 l 2.894531 -2.890625 z m 0 0"/>
        <path d="m 1.753906 4.671875 l 2.652344 -2.652344 l -1.769531 -1.765625 l -2.6484378 2.648438 z m 0 0"/>
        <path d="m 15.988281 2.78125 l -2.648437 -2.648438 l -1.769532 1.765626 l 2.652344 2.652343 z m 0 0"/>
    </g>
</svg>
