<?xml version="1.0" encoding="UTF-8"?>
<svg height="128px" viewBox="0 0 128 128" width="128px" xmlns="http://www.w3.org/2000/svg" xmlns:xlink="http://www.w3.org/1999/xlink">
    <clipPath id="a">
        <rect height="128" width="128"/>
    </clipPath>
    <clipPath id="b">
        <rect height="128" width="128"/>
    </clipPath>
    <filter id="c" height="100%" width="100%" x="0%" y="0%">
        <feColorMatrix in="SourceGraphic" type="matrix" values="0 0 0 0 1 0 0 0 0 1 0 0 0 0 1 0 0 0 1 0"/>
    </filter>
    <mask id="d">
        <g clip-path="url(#b)" filter="url(#c)">
            <g clip-path="url(#a)">
                <path d="m 51.980469 97.140625 h 24.367187 v 12.183594 h -24.367187 z m 0 0" fill="#5aaae7"/>
                <path d="m 48.445312 85.070312 h 32.488282 c 1.121094 0 2.03125 0.910157 2.03125 2.03125 v 8.125 c 0 1.121094 -0.910156 2.027344 -2.03125 2.027344 h -32.488282 c -1.121093 0 -2.03125 -0.90625 -2.03125 -2.027344 v -8.125 c 0 -1.121093 0.910157 -2.03125 2.03125 -2.03125 z m 0 0" fill="#3d9ae2"/>
                <path d="m 78.925781 31.359375 l -12.914062 12.933594 c -0.800781 0.785156 -2.085938 0.785156 -2.886719 0 l -12.914062 -12.933594 l -17.238282 17.238281 l 18.824219 18.800782 c 0.375 0.386718 0.585937 0.90625 0.589844 1.441406 v 16.246094 h 24.363281 v -16.246094 c 0.003906 -0.535156 0.214844 -1.054688 0.589844 -1.441406 l 18.824218 -18.800782 z m -30.601562 18.015625 v 3.222656 h -4.0625 v -8.121094 c 0 -1.121093 0.910156 -2.03125 2.03125 -2.03125 h 8.121093 v 4.058594 h -3.21875 l 8.71875 8.71875 l -2.871093 2.871094 z m 20.898437 22.933594 l -2.625 -2.625 v 11.339844 h -4.058594 v -11.339844 l -2.625 2.625 l -2.871093 -2.871094 l 6.089843 -6.09375 c 0.792969 -0.792969 2.078126 -0.792969 2.871094 0 l 6.089844 6.09375 z m 11.589844 -19.710938 v -3.222656 l -8.71875 8.71875 l -2.871094 -2.871094 l 8.71875 -8.71875 h -3.21875 v -4.058594 h 8.121094 c 1.121094 0 2.03125 0.910157 2.03125 2.03125 v 8.121094 z m 0 0" fill="#5aaae7"/>
                <path d="m 41.207031 23.882812 l -11.492187 -11.472656 l -17.21875 17.21875 l 11.472656 11.492188 z m 0 0" fill="#5aaae7"/>
                <path d="m 103.097656 52.703125 l 5.746094 -5.746094 c 0.789062 -0.792969 0.789062 -2.070312 0 -2.863281 l -22.984375 -22.984375 c -0.792969 -0.789063 -2.070313 -0.789063 -2.863281 0 l -5.746094 5.746094 c -0.785156 0.800781 -0.785156 2.082031 0 2.882812 l 22.964844 22.964844 c 0.804687 0.773437 2.078125 0.773437 2.882812 0 z m 0 0" fill="#3d9ae2"/>
                <path d="m 99.269531 11.625 l -11.492187 11.472656 l 17.238281 17.238282 l 11.472656 -11.492188 z m 0 0" fill="#5aaae7"/>
                <path d="m 27.011719 52.058594 c 0.796875 0.773437 2.066406 0.773437 2.863281 0 l 22.984375 -22.964844 c 0.785156 -0.800781 0.785156 -2.082031 0 -2.882812 l -5.746094 -5.746094 c -0.792969 -0.785156 -2.070312 -0.785156 -2.863281 0 l -22.984375 22.984375 c -0.789063 0.792969 -0.789063 2.074219 0 2.863281 z m 0 0" fill="#3d9ae2"/>
            </g>
        </g>
    </mask>
    <mask id="e">
        <g filter="url(#c)">
            <rect fill-opacity="0.8" height="128" width="128"/>
        </g>
    </mask>
    <linearGradient id="f" gradientTransform="matrix(0 0.37 -0.98462 0 295.38501 -30.360001)" gradientUnits="userSpaceOnUse" x1="300" x2="428" y1="235" y2="235">
        <stop offset="0" stop-color="#f9f06b"/>
        <stop offset="1" stop-color="#f5c211"/>
    </linearGradient>
    <clipPath id="g">
        <rect height="128" width="128"/>
    </clipPath>
    <clipPath id="h">
        <rect height="128" width="128"/>
    </clipPath>
    <path d="m 51.980469 97.140625 h 24.367187 v 12.183594 h -24.367187 z m 0 0" fill="#5aaae7"/>
    <path d="m 48.445312 85.070312 h 32.488282 c 1.121094 0 2.03125 0.910157 2.03125 2.03125 v 8.125 c 0 1.121094 -0.910156 2.027344 -2.03125 2.027344 h -32.488282 c -1.121093 0 -2.03125 -0.90625 -2.03125 -2.027344 v -8.125 c 0 -1.121093 0.910157 -2.03125 2.03125 -2.03125 z m 0 0" fill="#3d9ae2"/>
    <path d="m 78.925781 31.359375 l -12.914062 12.933594 c -0.800781 0.785156 -2.085938 0.785156 -2.886719 0 l -12.914062 -12.933594 l -17.238282 17.238281 l 18.824219 18.800782 c 0.375 0.386718 0.585937 0.90625 0.589844 1.441406 v 16.246094 h 24.363281 v -16.246094 c 0.003906 -0.535156 0.214844 -1.054688 0.589844 -1.441406 l 18.824218 -18.800782 z m -30.601562 18.015625 v 3.222656 h -4.0625 v -8.121094 c 0 -1.121093 0.910156 -2.03125 2.03125 -2.03125 h 8.121093 v 4.058594 h -3.21875 l 8.71875 8.71875 l -2.871093 2.871094 z m 20.898437 22.933594 l -2.625 -2.625 v 11.339844 h -4.058594 v -11.339844 l -2.625 2.625 l -2.871093 -2.871094 l 6.089843 -6.09375 c 0.792969 -0.792969 2.078126 -0.792969 2.871094 0 l 6.089844 6.09375 z m 11.589844 -19.710938 v -3.222656 l -8.71875 8.71875 l -2.871094 -2.871094 l 8.71875 -8.71875 h -3.21875 v -4.058594 h 8.121094 c 1.121094 0 2.03125 0.910157 2.03125 2.03125 v 8.121094 z m 0 0" fill="#5aaae7"/>
    <path d="m 41.207031 23.882812 l -11.492187 -11.472656 l -17.21875 17.21875 l 11.472656 11.492188 z m 0 0" fill="#5aaae7"/>
    <path d="m 103.097656 52.703125 l 5.746094 -5.746094 c 0.789062 -0.792969 0.789062 -2.070312 0 -2.863281 l -22.984375 -22.984375 c -0.792969 -0.789063 -2.070313 -0.789063 -2.863281 0 l -5.746094 5.746094 c -0.785156 0.800781 -0.785156 2.082031 0 2.882812 l 22.964844 22.964844 c 0.804687 0.773437 2.078125 0.773437 2.882812 0 z m 0 0" fill="#3d9ae2"/>
    <path d="m 99.269531 11.625 l -11.492187 11.472656 l 17.238281 17.238282 l 11.472656 -11.492188 z m 0 0" fill="#5aaae7"/>
    <path d="m 27.011719 52.058594 c 0.796875 0.773437 2.066406 0.773437 2.863281 0 l 22.984375 -22.964844 c 0.785156 -0.800781 0.785156 -2.082031 0 -2.882812 l -5.746094 -5.746094 c -0.792969 -0.785156 -2.070312 -0.785156 -2.863281 0 l -22.984375 22.984375 c -0.789063 0.792969 -0.789063 2.074219 0 2.863281 z m 0 0" fill="#3d9ae2"/>
    <g clip-path="url(#h)" mask="url(#d)">
        <g clip-path="url(#g)" mask="url(#e)">
            <path d="m 128 80.640625 v 47.359375 h -128 v -47.359375 z m 0 0" fill="url(#f)"/>
            <path d="m 13.308594 80.640625 l 47.355468 47.359375 h 21.214844 l -47.359375 -47.359375 z m 42.421875 0 l 47.363281 47.359375 h 21.214844 l -47.363282 -47.359375 z m 42.429687 0 l 29.839844 29.839844 v -21.210938 l -8.628906 -8.628906 z m -98.160156 7.90625 v 21.214844 l 18.238281 18.238281 h 21.214844 z m 0 0"/>
        </g>
    </g>
</svg>
